<?xml version="1.0" encoding="UTF-8" standalone="no"?>
<!DOCTYPE svg PUBLIC "-//W3C//DTD SVG 1.1//EN"
 "http://www.w3.org/Graphics/SVG/1.1/DTD/svg11.dtd">
<!-- Generated by graphviz version 2.43.0 (0)
 -->
<!-- Title: G Pages: 1 -->
<svg width="354pt" height="740pt"
 viewBox="0.00 0.00 354.35 740.00" xmlns="http://www.w3.org/2000/svg" xmlns:xlink="http://www.w3.org/1999/xlink">
<g id="graph0" class="graph" transform="scale(1 1) rotate(0) translate(4 736)">
<title>G</title>
<polygon fill="white" stroke="transparent" points="-4,4 -4,-736 350.35,-736 350.35,4 -4,4"/>
<!-- C source -->
<g id="node1" class="node">
<title>C source</title>
<ellipse fill="none" stroke="black" cx="51.35" cy="-714" rx="51.19" ry="18"/>
<text text-anchor="middle" x="51.35" y="-710.3" font-family="Times,serif" font-size="14.00">C source</text>
</g>
<!-- ELF executable -->
<g id="node2" class="node">
<title>ELF executable</title>
<ellipse fill="none" stroke="black" cx="114.35" cy="-366" rx="83.39" ry="18"/>
<text text-anchor="middle" x="114.35" y="-362.3" font-family="Times,serif" font-size="14.00">ELF executable</text>
</g>
<!-- C source&#45;&gt;ELF executable -->
<g id="edge1" class="edge">
<title>C source&#45;&gt;ELF executable</title>
<g id="a_edge1"><a xlink:href="https://github.com/pipcet/asmjs/blob/everything/wasm32.org#GCC" xlink:title="gcc">
<path fill="none" stroke="black" d="M46.19,-695.92C41.52,-678.88 35.35,-651.88 35.35,-628 35.35,-628 35.35,-628 35.35,-495.5 35.35,-452.54 59.62,-447.55 81.35,-410.5"/>
<path fill="none" stroke="black" d="M81.35,-408.5C84.05,-402.87 87.65,-397.3 91.47,-392.17"/>
<polygon fill="black" stroke="black" points="94.49,-393.99 97.99,-383.99 89.02,-389.63 94.49,-393.99"/>
</a>
</g>
<g id="a_edge1&#45;label"><a xlink:href="https://github.com/pipcet/asmjs/blob/everything/wasm32.org#GCC" xlink:title="gcc">
<text text-anchor="middle" x="47.85" y="-536.3" font-family="Times,serif" font-size="14.00">gcc</text>
</a>
</g>
</g>
<!-- Assembler source -->
<g id="node4" class="node">
<title>Assembler source</title>
<ellipse fill="none" stroke="black" cx="180.35" cy="-627" rx="92.88" ry="18"/>
<text text-anchor="middle" x="180.35" y="-623.3" font-family="Times,serif" font-size="14.00">Assembler source</text>
</g>
<!-- C source&#45;&gt;Assembler source -->
<g id="edge3" class="edge">
<title>C source&#45;&gt;Assembler source</title>
<g id="a_edge3"><a xlink:href="https://github.com/pipcet/asmjs/blob/everything/wasm32.org#cc1" xlink:title="GNU CC">
<path fill="none" stroke="black" d="M74.41,-697.8C94.59,-684.51 124.15,-665.03 146.92,-650.03"/>
<polygon fill="black" stroke="black" points="148.85,-652.94 155.28,-644.52 145,-647.1 148.85,-652.94"/>
</a>
</g>
<g id="a_edge3&#45;label"><a xlink:href="https://github.com/pipcet/asmjs/blob/everything/wasm32.org#cc1" xlink:title="GNU CC">
<text text-anchor="middle" x="153.85" y="-666.8" font-family="Times,serif" font-size="14.00">GNU CC</text>
</a>
</g>
</g>
<!-- final WASM -->
<g id="node3" class="node">
<title>final WASM</title>
<ellipse fill="none" stroke="black" cx="205.35" cy="-18" rx="65.79" ry="18"/>
<text text-anchor="middle" x="205.35" y="-14.3" font-family="Times,serif" font-size="14.00">final WASM</text>
</g>
<!-- ELF executable&#45;&gt;final WASM -->
<g id="edge2" class="edge">
<title>ELF executable&#45;&gt;final WASM</title>
<g id="a_edge2"><a xlink:href="https://github.com/pipcet/asmjs/blob/everything/wasm32.org#wasmify" xlink:title="wasmify&#45;wasm32">
<path fill="none" stroke="black" d="M72.85,-350.37C43.5,-337.07 9.35,-314.24 9.35,-280 9.35,-280 9.35,-280 9.35,-104 9.35,-49.01 75.09,-29.2 130.43,-22.27"/>
<polygon fill="black" stroke="black" points="131.08,-25.72 140.62,-21.12 130.3,-18.77 131.08,-25.72"/>
</a>
</g>
<g id="a_edge2&#45;label"><a xlink:href="https://github.com/pipcet/asmjs/blob/everything/wasm32.org#wasmify" xlink:title="wasmify&#45;wasm32">
<text text-anchor="middle" x="71.35" y="-188.3" font-family="Times,serif" font-size="14.00">wasmify&#45;wasm32</text>
</a>
</g>
</g>
<!-- ELF intermediate -->
<g id="node7" class="node">
<title>ELF intermediate</title>
<ellipse fill="none" stroke="black" cx="135.35" cy="-279" rx="92.88" ry="18"/>
<text text-anchor="middle" x="135.35" y="-275.3" font-family="Times,serif" font-size="14.00">ELF intermediate</text>
</g>
<!-- ELF executable&#45;&gt;ELF intermediate -->
<g id="edge8" class="edge">
<title>ELF executable&#45;&gt;ELF intermediate</title>
<g id="a_edge8"><a xlink:href="https://github.com/pipcet/asmjs/blob/everything/wasm32.org#wasm32.cpp-lds.lds" xlink:title="wasm32.cpp&#45;lds.lds">
<path fill="none" stroke="black" d="M118.6,-347.8C121.47,-336.16 125.33,-320.55 128.62,-307.24"/>
<polygon fill="black" stroke="black" points="132.1,-307.72 131.1,-297.18 125.31,-306.04 132.1,-307.72"/>
</a>
</g>
<g id="a_edge8&#45;label"><a xlink:href="https://github.com/pipcet/asmjs/blob/everything/wasm32.org#wasm32.cpp-lds.lds" xlink:title="wasm32.cpp&#45;lds.lds">
<text text-anchor="middle" x="195.85" y="-318.8" font-family="Times,serif" font-size="14.00">wasm32.cpp&#45;lds.lds</text>
</a>
</g>
</g>
<!-- ELF object file -->
<g id="node5" class="node">
<title>ELF object file</title>
<ellipse fill="none" stroke="black" cx="180.35" cy="-540" rx="78.79" ry="18"/>
<text text-anchor="middle" x="180.35" y="-536.3" font-family="Times,serif" font-size="14.00">ELF object file</text>
</g>
<!-- Assembler source&#45;&gt;ELF object file -->
<g id="edge4" class="edge">
<title>Assembler source&#45;&gt;ELF object file</title>
<g id="a_edge4"><a xlink:href="https://github.com/pipcet/asmjs/blob/everything/wasm32.org#as" xlink:title="GNU as">
<path fill="none" stroke="black" d="M180.35,-608.8C180.35,-597.16 180.35,-581.55 180.35,-568.24"/>
<polygon fill="black" stroke="black" points="183.85,-568.18 180.35,-558.18 176.85,-568.18 183.85,-568.18"/>
</a>
</g>
<g id="a_edge4&#45;label"><a xlink:href="https://github.com/pipcet/asmjs/blob/everything/wasm32.org#as" xlink:title="GNU as">
<text text-anchor="middle" x="208.35" y="-579.8" font-family="Times,serif" font-size="14.00">GNU as</text>
</a>
</g>
</g>
<!-- wasm2s -->
<g id="node10" class="node">
<title>wasm2s</title>
<g id="a_node10"><a xlink:href="https://github.com/pipcet/asmjs/blob/everything/wasm32.org#wasm2s" xlink:title="wasm2s">
<polygon fill="none" stroke="black" points="346.35,-297 272.35,-297 272.35,-261 346.35,-261 346.35,-297"/>
<text text-anchor="middle" x="309.35" y="-275.3" font-family="Times,serif" font-size="14.00">wasm2s</text>
</a>
</g>
</g>
<!-- Assembler source&#45;&gt;wasm2s -->
<g id="edge12" class="edge">
<title>Assembler source&#45;&gt;wasm2s</title>
<path fill="none" stroke="black" d="M245.63,-608.94C277.61,-596.24 309.35,-575.05 309.35,-541 309.35,-541 309.35,-541 309.35,-365 309.35,-341.54 309.35,-314.43 309.35,-297.26"/>
<polygon fill="black" stroke="black" points="244.33,-605.69 236.18,-612.46 246.77,-612.25 244.33,-605.69"/>
</g>
<!-- ELF object file&#45;&gt;ELF executable -->
<g id="edge6" class="edge">
<title>ELF object file&#45;&gt;ELF executable</title>
<g id="a_edge6"><a xlink:href="https://github.com/pipcet/asmjs/blob/everything/wasm32.org#ld" xlink:title="GNU ld">
<path fill="none" stroke="black" d="M152.14,-523.05C114.11,-499.41 54.09,-453.24 81.35,-410.5"/>
</a>
</g>
<g id="a_edge6&#45;label"><a xlink:href="https://github.com/pipcet/asmjs/blob/everything/wasm32.org#ld" xlink:title="GNU ld">
<text text-anchor="middle" x="116.35" y="-449.3" font-family="Times,serif" font-size="14.00">GNU ld</text>
</a>
</g>
</g>
<!-- ELF library -->
<g id="node6" class="node">
<title>ELF library</title>
<ellipse fill="none" stroke="black" cx="217.35" cy="-453" rx="63.89" ry="18"/>
<text text-anchor="middle" x="217.35" y="-449.3" font-family="Times,serif" font-size="14.00">ELF library</text>
</g>
<!-- ELF object file&#45;&gt;ELF library -->
<g id="edge5" class="edge">
<title>ELF object file&#45;&gt;ELF library</title>
<g id="a_edge5"><a xlink:href="https://github.com/pipcet/asmjs/blob/everything/wasm32.org#ld" xlink:title="GNU ld">
<path fill="none" stroke="black" d="M187.83,-521.8C193.03,-509.85 200.06,-493.72 205.95,-480.18"/>
<polygon fill="black" stroke="black" points="209.21,-481.45 210,-470.89 202.79,-478.66 209.21,-481.45"/>
</a>
</g>
<g id="a_edge5&#45;label"><a xlink:href="https://github.com/pipcet/asmjs/blob/everything/wasm32.org#ld" xlink:title="GNU ld">
<text text-anchor="middle" x="227.35" y="-492.8" font-family="Times,serif" font-size="14.00">GNU ld</text>
</a>
</g>
</g>
<!-- ELF library&#45;&gt;ELF executable -->
<g id="edge7" class="edge">
<title>ELF library&#45;&gt;ELF executable</title>
<path fill="none" stroke="black" d="M197.49,-435.61C181.91,-422.76 160.04,-404.71 142.63,-390.34"/>
<polygon fill="black" stroke="black" points="144.44,-387.29 134.5,-383.63 139.98,-392.69 144.44,-387.29"/>
<text text-anchor="middle" x="194.35" y="-405.8" font-family="Times,serif" font-size="14.00">elfedit</text>
</g>
<!-- long WASM -->
<g id="node8" class="node">
<title>long WASM</title>
<ellipse fill="none" stroke="black" cx="216.35" cy="-192" rx="64.99" ry="18"/>
<text text-anchor="middle" x="216.35" y="-188.3" font-family="Times,serif" font-size="14.00">long WASM</text>
</g>
<!-- ELF intermediate&#45;&gt;long WASM -->
<g id="edge9" class="edge">
<title>ELF intermediate&#45;&gt;long WASM</title>
<g id="a_edge9"><a xlink:href="https://github.com/pipcet/asmjs/blob/everything/wasm32.org#wasm32-wasmify.lds" xlink:title="wasm32&#45;wasmify.lds">
<path fill="none" stroke="black" d="M136.33,-260.68C137.72,-250.25 140.95,-237.24 148.35,-228 153.65,-221.37 160.55,-215.87 167.92,-211.34"/>
<polygon fill="black" stroke="black" points="169.66,-214.38 176.71,-206.47 166.27,-208.25 169.66,-214.38"/>
</a>
</g>
<g id="a_edge9&#45;label"><a xlink:href="https://github.com/pipcet/asmjs/blob/everything/wasm32.org#wasm32-wasmify.lds" xlink:title="wasm32&#45;wasmify.lds">
<text text-anchor="middle" x="221.85" y="-231.8" font-family="Times,serif" font-size="14.00">wasm32&#45;wasmify.lds</text>
</a>
</g>
</g>
<!-- short WASM -->
<g id="node9" class="node">
<title>short WASM</title>
<ellipse fill="none" stroke="black" cx="205.35" cy="-105" rx="69.59" ry="18"/>
<text text-anchor="middle" x="205.35" y="-101.3" font-family="Times,serif" font-size="14.00">short WASM</text>
</g>
<!-- long WASM&#45;&gt;short WASM -->
<g id="edge10" class="edge">
<title>long WASM&#45;&gt;short WASM</title>
<g id="a_edge10"><a xlink:href="https://github.com/pipcet/asmjs/blob/everything/wasm32.org#wasmrewrite" xlink:title="wasmrewrite">
<path fill="none" stroke="black" d="M207.43,-174C204.95,-168.42 202.59,-162.09 201.35,-156 199.85,-148.69 199.8,-140.68 200.4,-133.25"/>
<polygon fill="black" stroke="black" points="203.88,-133.62 201.59,-123.27 196.93,-132.78 203.88,-133.62"/>
</a>
</g>
<g id="a_edge10&#45;label"><a xlink:href="https://github.com/pipcet/asmjs/blob/everything/wasm32.org#wasmrewrite" xlink:title="wasmrewrite">
<text text-anchor="middle" x="248.35" y="-144.8" font-family="Times,serif" font-size="14.00">wasmrewrite</text>
</a>
</g>
</g>
<!-- short WASM&#45;&gt;final WASM -->
<g id="edge11" class="edge">
<title>short WASM&#45;&gt;final WASM</title>
<g id="a_edge11"><a xlink:href="https://github.com/pipcet/asmjs/blob/everything/wasm32.org#dyninfo" xlink:title="dyninfo">
<path fill="none" stroke="black" d="M205.35,-86.8C205.35,-75.16 205.35,-59.55 205.35,-46.24"/>
<polygon fill="black" stroke="black" points="208.85,-46.18 205.35,-36.18 201.85,-46.18 208.85,-46.18"/>
</a>
</g>
<g id="a_edge11&#45;label"><a xlink:href="https://github.com/pipcet/asmjs/blob/everything/wasm32.org#dyninfo" xlink:title="dyninfo">
<text text-anchor="middle" x="232.35" y="-57.8" font-family="Times,serif" font-size="14.00">dyninfo</text>
</a>
</g>
</g>
<!-- wasm2s&#45;&gt;final WASM -->
<g id="edge15" class="edge">
<title>wasm2s&#45;&gt;final WASM</title>
<path fill="none" stroke="black" d="M309.35,-147.5C289.74,-105.54 296.48,-86.36 263.35,-54 255.44,-46.28 245.51,-39.51 236.13,-34.03"/>
</g>
<!-- wasm2s&#45;&gt;long WASM -->
<g id="edge13" class="edge">
<title>wasm2s&#45;&gt;long WASM</title>
<path fill="none" stroke="black" d="M312.47,-250.54C312.15,-245.72 311.24,-240.86 309.35,-236.5"/>
<polygon fill="black" stroke="black" points="308.97,-250.78 312.36,-260.81 315.97,-250.85 308.97,-250.78"/>
<path fill="none" stroke="black" d="M309.35,-234.5C302.31,-218.28 286.58,-208.4 270.02,-202.38"/>
</g>
<!-- wasm2s&#45;&gt;short WASM -->
<g id="edge14" class="edge">
<title>wasm2s&#45;&gt;short WASM</title>
<path fill="none" stroke="black" d="M309.35,-234.5C294.31,-199.84 325.34,-183.73 309.35,-149.5"/>
<path fill="none" stroke="black" d="M309.35,-147.5C301.24,-130.15 283.98,-120.01 265.8,-114.1"/>
</g>
</g>
</svg>
