<?xml version="1.0" encoding="UTF-8" standalone="no"?>
<!DOCTYPE svg PUBLIC "-//W3C//DTD SVG 1.1//EN"
 "http://www.w3.org/Graphics/SVG/1.1/DTD/svg11.dtd">
<!-- Generated by graphviz version 2.38.0 (20140413.2041)
 -->
<!-- Title: G Pages: 1 -->
<svg width="375pt" height="740pt"
 viewBox="0.00 0.00 375.09 740.00" xmlns="http://www.w3.org/2000/svg" xmlns:xlink="http://www.w3.org/1999/xlink">
<g id="graph0" class="graph" transform="scale(1 1) rotate(0) translate(4 736)">
<title>G</title>
<polygon fill="white" stroke="none" points="-4,4 -4,-736 371.093,-736 371.093,4 -4,4"/>
<!-- C source -->
<g id="node1" class="node"><title>C source</title>
<ellipse fill="none" stroke="black" cx="74.0934" cy="-714" rx="42.4939" ry="18"/>
<text text-anchor="middle" x="74.0934" y="-710.3" font-family="Times,serif" font-size="14.00">C source</text>
</g>
<!-- Assembler source -->
<g id="node2" class="node"><title>Assembler source</title>
<ellipse fill="none" stroke="black" cx="74.0934" cy="-627" rx="74.187" ry="18"/>
<text text-anchor="middle" x="74.0934" y="-623.3" font-family="Times,serif" font-size="14.00">Assembler source</text>
</g>
<!-- C source&#45;&gt;Assembler source -->
<g id="edge1" class="edge"><title>C source&#45;&gt;Assembler source</title>
<path fill="none" stroke="black" d="M74.0934,-695.799C74.0934,-684.163 74.0934,-668.548 74.0934,-655.237"/>
<polygon fill="black" stroke="black" points="77.5935,-655.175 74.0934,-645.175 70.5935,-655.175 77.5935,-655.175"/>
<text text-anchor="middle" x="100.093" y="-666.8" font-family="Times,serif" font-size="14.00">GNU CC</text>
</g>
<!-- ELF object file -->
<g id="node3" class="node"><title>ELF object file</title>
<ellipse fill="none" stroke="black" cx="74.0934" cy="-540" rx="64.189" ry="18"/>
<text text-anchor="middle" x="74.0934" y="-536.3" font-family="Times,serif" font-size="14.00">ELF object file</text>
</g>
<!-- Assembler source&#45;&gt;ELF object file -->
<g id="edge2" class="edge"><title>Assembler source&#45;&gt;ELF object file</title>
<path fill="none" stroke="black" d="M74.0934,-608.799C74.0934,-597.163 74.0934,-581.548 74.0934,-568.237"/>
<polygon fill="black" stroke="black" points="77.5935,-568.175 74.0934,-558.175 70.5935,-568.175 77.5935,-568.175"/>
<text text-anchor="middle" x="96.5934" y="-579.8" font-family="Times,serif" font-size="14.00">GNU as</text>
</g>
<!-- ELF library -->
<g id="node4" class="node"><title>ELF library</title>
<ellipse fill="none" stroke="black" cx="68.0934" cy="-453" rx="51.9908" ry="18"/>
<text text-anchor="middle" x="68.0934" y="-449.3" font-family="Times,serif" font-size="14.00">ELF library</text>
</g>
<!-- ELF object file&#45;&gt;ELF library -->
<g id="edge3" class="edge"><title>ELF object file&#45;&gt;ELF library</title>
<path fill="none" stroke="black" d="M72.8792,-521.799C72.0578,-510.163 70.9556,-494.548 70.016,-481.237"/>
<polygon fill="black" stroke="black" points="73.5013,-480.904 69.3058,-471.175 66.5187,-481.397 73.5013,-480.904"/>
<text text-anchor="middle" x="94.0934" y="-492.8" font-family="Times,serif" font-size="14.00">GNU ld</text>
</g>
<!-- ELF executable -->
<g id="node5" class="node"><title>ELF executable</title>
<ellipse fill="none" stroke="black" cx="110.093" cy="-366" rx="66.0889" ry="18"/>
<text text-anchor="middle" x="110.093" y="-362.3" font-family="Times,serif" font-size="14.00">ELF executable</text>
</g>
<!-- ELF object file&#45;&gt;ELF executable -->
<g id="edge4" class="edge"><title>ELF object file&#45;&gt;ELF executable</title>
<path fill="none" stroke="black" d="M100.665,-523.381C107.859,-518.037 115.044,-511.488 120.093,-504 128.593,-491.396 126.797,-486.028 129.093,-471 133.728,-440.672 139.283,-431.566 131.093,-402 130.251,-398.957 129.065,-395.913 127.681,-392.96"/>
<polygon fill="black" stroke="black" points="130.628,-391.053 122.764,-383.953 124.484,-394.407 130.628,-391.053"/>
<text text-anchor="middle" x="157.093" y="-449.3" font-family="Times,serif" font-size="14.00">GNU ld</text>
</g>
<!-- ELF library&#45;&gt;ELF executable -->
<g id="edge5" class="edge"><title>ELF library&#45;&gt;ELF executable</title>
<path fill="none" stroke="black" d="M76.3913,-435.207C82.335,-423.178 90.4533,-406.748 97.2327,-393.028"/>
<polygon fill="black" stroke="black" points="100.377,-394.565 101.669,-384.049 94.1013,-391.464 100.377,-394.565"/>
<text text-anchor="middle" x="109.593" y="-405.8" font-family="Times,serif" font-size="14.00">elfedit</text>
</g>
<!-- ELF intermediate -->
<g id="node6" class="node"><title>ELF intermediate</title>
<ellipse fill="none" stroke="black" cx="110.093" cy="-279" rx="73.387" ry="18"/>
<text text-anchor="middle" x="110.093" y="-275.3" font-family="Times,serif" font-size="14.00">ELF intermediate</text>
</g>
<!-- ELF executable&#45;&gt;ELF intermediate -->
<g id="edge6" class="edge"><title>ELF executable&#45;&gt;ELF intermediate</title>
<path fill="none" stroke="black" d="M110.093,-347.799C110.093,-336.163 110.093,-320.548 110.093,-307.237"/>
<polygon fill="black" stroke="black" points="113.594,-307.175 110.093,-297.175 106.594,-307.175 113.594,-307.175"/>
<text text-anchor="middle" x="164.593" y="-318.8" font-family="Times,serif" font-size="14.00">wasm32.cpp&#45;lds.lds</text>
</g>
<!-- long WASM -->
<g id="node7" class="node"><title>long WASM</title>
<ellipse fill="none" stroke="black" cx="110.093" cy="-192" rx="57.3905" ry="18"/>
<text text-anchor="middle" x="110.093" y="-188.3" font-family="Times,serif" font-size="14.00">long WASM</text>
</g>
<!-- ELF intermediate&#45;&gt;long WASM -->
<g id="edge7" class="edge"><title>ELF intermediate&#45;&gt;long WASM</title>
<path fill="none" stroke="black" d="M110.093,-260.799C110.093,-249.163 110.093,-233.548 110.093,-220.237"/>
<polygon fill="black" stroke="black" points="113.594,-220.175 110.093,-210.175 106.594,-220.175 113.594,-220.175"/>
<text text-anchor="middle" x="169.093" y="-231.8" font-family="Times,serif" font-size="14.00">wasm32&#45;wasmify.lds</text>
</g>
<!-- long WASM&#45;&gt;Assembler source -->
<g id="edge10" class="edge"><title>long WASM&#45;&gt;Assembler source</title>
<path fill="none" stroke="black" d="M154.517,-203.347C186.341,-211.208 224.384,-221.707 229.093,-228 242.696,-246.18 227.36,-307.699 223.093,-330 216.781,-362.995 209.228,-369.673 200.093,-402 191.505,-432.394 192.937,-440.989 183.093,-471 170.051,-510.762 167.543,-521.491 147.093,-558 138.231,-573.822 135.972,-578.231 123.093,-591 118.514,-595.541 113.296,-599.925 108.014,-603.965"/>
<polygon fill="black" stroke="black" points="105.755,-601.28 99.7421,-610.003 109.883,-606.934 105.755,-601.28"/>
<text text-anchor="middle" x="222.593" y="-405.8" font-family="Times,serif" font-size="14.00">wasm2s</text>
</g>
<!-- short WASM -->
<g id="node8" class="node"><title>short WASM</title>
<ellipse fill="none" stroke="black" cx="110.093" cy="-105" rx="59.2899" ry="18"/>
<text text-anchor="middle" x="110.093" y="-101.3" font-family="Times,serif" font-size="14.00">short WASM</text>
</g>
<!-- long WASM&#45;&gt;short WASM -->
<g id="edge8" class="edge"><title>long WASM&#45;&gt;short WASM</title>
<path fill="none" stroke="black" d="M110.093,-173.799C110.093,-162.163 110.093,-146.548 110.093,-133.237"/>
<polygon fill="black" stroke="black" points="113.594,-133.175 110.093,-123.175 106.594,-133.175 113.594,-133.175"/>
<text text-anchor="middle" x="145.593" y="-144.8" font-family="Times,serif" font-size="14.00">wasmrewrite</text>
</g>
<!-- short WASM&#45;&gt;Assembler source -->
<g id="edge11" class="edge"><title>short WASM&#45;&gt;Assembler source</title>
<path fill="none" stroke="black" d="M147.822,-119.03C160.509,-124.553 174.195,-131.858 185.093,-141 221.274,-171.349 231.879,-182.966 246.093,-228 271.378,-308.105 265.43,-335.498 245.093,-417 242.364,-427.938 195.401,-549.986 144.093,-591 136.767,-596.856 128.302,-602.099 119.845,-606.634"/>
<polygon fill="black" stroke="black" points="118.053,-603.619 110.726,-611.272 121.226,-609.858 118.053,-603.619"/>
<text text-anchor="middle" x="283.593" y="-362.3" font-family="Times,serif" font-size="14.00">wasm2s</text>
</g>
<!-- final WASM -->
<g id="node9" class="node"><title>final WASM</title>
<ellipse fill="none" stroke="black" cx="110.093" cy="-18" rx="57.6901" ry="18"/>
<text text-anchor="middle" x="110.093" y="-14.3" font-family="Times,serif" font-size="14.00">final WASM</text>
</g>
<!-- short WASM&#45;&gt;final WASM -->
<g id="edge9" class="edge"><title>short WASM&#45;&gt;final WASM</title>
<path fill="none" stroke="black" d="M110.093,-86.799C110.093,-75.1626 110.093,-59.5479 110.093,-46.2368"/>
<polygon fill="black" stroke="black" points="113.594,-46.1754 110.093,-36.1754 106.594,-46.1755 113.594,-46.1754"/>
<text text-anchor="middle" x="131.593" y="-57.8" font-family="Times,serif" font-size="14.00">dyninfo</text>
</g>
<!-- final WASM&#45;&gt;Assembler source -->
<g id="edge12" class="edge"><title>final WASM&#45;&gt;Assembler source</title>
<path fill="none" stroke="black" d="M134.181,-34.7811C141.907,-40.3905 150.232,-47.0499 157.093,-54 270.674,-169.042 355.061,-228.716 310.093,-384 305.929,-398.382 239.772,-544.086 166.093,-591 154.836,-598.168 141.886,-604.22 129.323,-609.169"/>
<polygon fill="black" stroke="black" points="127.955,-605.944 119.826,-612.739 130.418,-612.497 127.955,-605.944"/>
<text text-anchor="middle" x="344.593" y="-318.8" font-family="Times,serif" font-size="14.00">wasm2s</text>
</g>
</g>
</svg>
