<?xml version="1.0" encoding="UTF-8" standalone="no"?>
<!DOCTYPE svg PUBLIC "-//W3C//DTD SVG 1.1//EN"
 "http://www.w3.org/Graphics/SVG/1.1/DTD/svg11.dtd">
<!-- Generated by graphviz version 2.41.20170306.0554 (20170306.0554)
 -->
<!-- Title: G Pages: 1 -->
<svg width="317pt" height="754pt"
 viewBox="0.00 0.00 316.64 754.40" xmlns="http://www.w3.org/2000/svg" xmlns:xlink="http://www.w3.org/1999/xlink">
<g id="graph0" class="graph" transform="scale(1 1) rotate(0) translate(4 750.4)">
<title>G</title>
<polygon fill="#ffffff" stroke="transparent" points="-4,4 -4,-750.4 312.6422,-750.4 312.6422,4 -4,4"/>
<!-- C source -->
<g id="node1" class="node">
<title>C source</title>
<ellipse fill="none" stroke="#000000" cx="45.0917" cy="-728.4" rx="45.1836" ry="18"/>
<text text-anchor="middle" x="45.0917" y="-724.2" font-family="Times-Roman" font-size="14.00" fill="#000000">C source</text>
</g>
<!-- ELF executable -->
<g id="node2" class="node">
<title>ELF executable</title>
<ellipse fill="none" stroke="#000000" cx="109.0917" cy="-373.2" rx="71.8086" ry="18"/>
<text text-anchor="middle" x="109.0917" y="-369" font-family="Times-Roman" font-size="14.00" fill="#000000">ELF executable</text>
</g>
<!-- C source&#45;&gt;ELF executable -->
<g id="edge1" class="edge">
<title>C source&#45;&gt;ELF executable</title>
<g id="a_edge1"><a xlink:href="https://github.com/pipcet/asmjs/blob/everything/wasm32.org#GCC" xlink:title="gcc">
<path fill="none" stroke="#000000" d="M39.8527,-710.2048C35.1864,-692.3754 29.0917,-664.3506 29.0917,-639.6 29.0917,-639.6 29.0917,-639.6 29.0917,-506.4 29.0917,-461.9524 52.1241,-455.6536 75.0917,-417.6"/>
<path fill="none" stroke="#000000" d="M75.0917,-417.6C78.2444,-411.2998 82.3414,-405.004 86.5942,-399.2162"/>
<polygon fill="#000000" stroke="#000000" points="89.4809,-401.2053 92.8447,-391.1586 83.9499,-396.9147 89.4809,-401.2053"/>
</a>
</g>
<g id="a_edge1&#45;label"><a xlink:href="https://github.com/pipcet/asmjs/blob/everything/wasm32.org#GCC" xlink:title="gcc">
<text text-anchor="middle" x="38.8063" y="-546.6" font-family="Times-Roman" font-size="14.00" fill="#000000">gcc</text>
</a>
</g>
</g>
<!-- Assembler source -->
<g id="node4" class="node">
<title>Assembler source</title>
<ellipse fill="none" stroke="#000000" cx="159.0917" cy="-639.6" rx="79.8931" ry="18"/>
<text text-anchor="middle" x="159.0917" y="-635.4" font-family="Times-Roman" font-size="14.00" fill="#000000">Assembler source</text>
</g>
<!-- C source&#45;&gt;Assembler source -->
<g id="edge3" class="edge">
<title>C source&#45;&gt;Assembler source</title>
<g id="a_edge3"><a xlink:href="https://github.com/pipcet/asmjs/blob/everything/wasm32.org#cc1" xlink:title="GNU CC">
<path fill="none" stroke="#000000" d="M65.7363,-712.319C83.2529,-698.6745 108.6311,-678.9061 128.5073,-663.4237"/>
<polygon fill="#000000" stroke="#000000" points="130.9115,-665.9875 136.6498,-657.0811 126.6099,-660.4651 130.9115,-665.9875"/>
</a>
</g>
<g id="a_edge3&#45;label"><a xlink:href="https://github.com/pipcet/asmjs/blob/everything/wasm32.org#cc1" xlink:title="GNU CC">
<text text-anchor="middle" x="138.3382" y="-679.8" font-family="Times-Roman" font-size="14.00" fill="#000000">GNU CC</text>
</a>
</g>
</g>
<!-- final WASM -->
<g id="node3" class="node">
<title>final WASM</title>
<ellipse fill="none" stroke="#000000" cx="187.0917" cy="-18" rx="61.3745" ry="18"/>
<text text-anchor="middle" x="187.0917" y="-13.8" font-family="Times-Roman" font-size="14.00" fill="#000000">final WASM</text>
</g>
<!-- ELF executable&#45;&gt;final WASM -->
<g id="edge2" class="edge">
<title>ELF executable&#45;&gt;final WASM</title>
<g id="a_edge2"><a xlink:href="https://github.com/pipcet/asmjs/blob/everything/wasm32.org#wasmify" xlink:title="wasmify&#45;wasm32">
<path fill="none" stroke="#000000" d="M72.3213,-357.7031C44.5134,-343.2434 11.0917,-318.7247 11.0917,-284.4 11.0917,-284.4 11.0917,-284.4 11.0917,-106.8 11.0917,-56.5308 69.0297,-34.7135 118.4214,-25.2476"/>
<polygon fill="#000000" stroke="#000000" points="119.2515,-28.6551 128.4863,-23.4618 118.0286,-21.7627 119.2515,-28.6551"/>
</a>
</g>
<g id="a_edge2&#45;label"><a xlink:href="https://github.com/pipcet/asmjs/blob/everything/wasm32.org#wasmify" xlink:title="wasmify&#45;wasm32">
<text text-anchor="middle" x="60.854" y="-191.4" font-family="Times-Roman" font-size="14.00" fill="#000000">wasmify&#45;wasm32</text>
</a>
</g>
</g>
<!-- ELF intermediate -->
<g id="node7" class="node">
<title>ELF intermediate</title>
<ellipse fill="none" stroke="#000000" cx="131.0917" cy="-284.4" rx="78.7668" ry="18"/>
<text text-anchor="middle" x="131.0917" y="-280.2" font-family="Times-Roman" font-size="14.00" fill="#000000">ELF intermediate</text>
</g>
<!-- ELF executable&#45;&gt;ELF intermediate -->
<g id="edge8" class="edge">
<title>ELF executable&#45;&gt;ELF intermediate</title>
<g id="a_edge8"><a xlink:href="https://github.com/pipcet/asmjs/blob/everything/wasm32.org#wasm32.cpp-lds.lds" xlink:title="wasm32.cpp&#45;lds.lds">
<path fill="none" stroke="#000000" d="M113.5438,-355.23C116.5653,-343.0338 120.6233,-326.6543 124.0758,-312.7187"/>
<polygon fill="#000000" stroke="#000000" points="127.5633,-313.1963 126.5708,-302.6481 120.7687,-311.5129 127.5633,-313.1963"/>
</a>
</g>
<g id="a_edge8&#45;label"><a xlink:href="https://github.com/pipcet/asmjs/blob/everything/wasm32.org#wasm32.cpp-lds.lds" xlink:title="wasm32.cpp&#45;lds.lds">
<text text-anchor="middle" x="176.6927" y="-324.6" font-family="Times-Roman" font-size="14.00" fill="#000000">wasm32.cpp&#45;lds.lds</text>
</a>
</g>
</g>
<!-- ELF object file -->
<g id="node5" class="node">
<title>ELF object file</title>
<ellipse fill="none" stroke="#000000" cx="159.0917" cy="-550.8" rx="69.4974" ry="18"/>
<text text-anchor="middle" x="159.0917" y="-546.6" font-family="Times-Roman" font-size="14.00" fill="#000000">ELF object file</text>
</g>
<!-- Assembler source&#45;&gt;ELF object file -->
<g id="edge4" class="edge">
<title>Assembler source&#45;&gt;ELF object file</title>
<g id="a_edge4"><a xlink:href="https://github.com/pipcet/asmjs/blob/everything/wasm32.org#as" xlink:title="GNU as">
<path fill="none" stroke="#000000" d="M159.0917,-621.2006C159.0917,-609.0949 159.0917,-593.0076 159.0917,-579.2674"/>
<polygon fill="#000000" stroke="#000000" points="162.5918,-578.872 159.0917,-568.872 155.5918,-578.8721 162.5918,-578.872"/>
</a>
</g>
<g id="a_edge4&#45;label"><a xlink:href="https://github.com/pipcet/asmjs/blob/everything/wasm32.org#as" xlink:title="GNU as">
<text text-anchor="middle" x="181.8312" y="-591" font-family="Times-Roman" font-size="14.00" fill="#000000">GNU as</text>
</a>
</g>
</g>
<!-- wasm2s -->
<g id="node10" class="node">
<title>wasm2s</title>
<g id="a_node10"><a xlink:href="https://github.com/pipcet/asmjs/blob/everything/wasm32.org#wasm2s" xlink:title="wasm2s">
<polygon fill="none" stroke="#000000" points="308.6928,-302.4 247.4906,-302.4 247.4906,-266.4 308.6928,-266.4 308.6928,-302.4"/>
<text text-anchor="middle" x="278.0917" y="-280.2" font-family="Times-Roman" font-size="14.00" fill="#000000">wasm2s</text>
</a>
</g>
</g>
<!-- Assembler source&#45;&gt;wasm2s -->
<g id="edge12" class="edge">
<title>Assembler source&#45;&gt;wasm2s</title>
<path fill="none" stroke="#000000" d="M216.2172,-621.043C246.7373,-607.1696 278.0917,-584.6737 278.0917,-550.8 278.0917,-550.8 278.0917,-550.8 278.0917,-373.2 278.0917,-348.6875 278.0917,-320.3689 278.0917,-302.4279"/>
<polygon fill="#000000" stroke="#000000" points="214.6211,-617.9191 206.8079,-625.0748 217.3781,-624.3533 214.6211,-617.9191"/>
</g>
<!-- ELF object file&#45;&gt;ELF executable -->
<g id="edge6" class="edge">
<title>ELF object file&#45;&gt;ELF executable</title>
<g id="a_edge6"><a xlink:href="https://github.com/pipcet/asmjs/blob/everything/wasm32.org#ld" xlink:title="GNU ld">
<path fill="none" stroke="#000000" d="M134.5802,-533.7472C101.2485,-508.3906 48.6396,-459.2589 75.0917,-417.6"/>
</a>
</g>
<g id="a_edge6&#45;label"><a xlink:href="https://github.com/pipcet/asmjs/blob/everything/wasm32.org#ld" xlink:title="GNU ld">
<text text-anchor="middle" x="102.4469" y="-457.8" font-family="Times-Roman" font-size="14.00" fill="#000000">GNU ld</text>
</a>
</g>
</g>
<!-- ELF library -->
<g id="node6" class="node">
<title>ELF library</title>
<ellipse fill="none" stroke="#000000" cx="194.0917" cy="-462" rx="56.2173" ry="18"/>
<text text-anchor="middle" x="194.0917" y="-457.8" font-family="Times-Roman" font-size="14.00" fill="#000000">ELF library</text>
</g>
<!-- ELF object file&#45;&gt;ELF library -->
<g id="edge5" class="edge">
<title>ELF object file&#45;&gt;ELF library</title>
<g id="a_edge5"><a xlink:href="https://github.com/pipcet/asmjs/blob/everything/wasm32.org#ld" xlink:title="GNU ld">
<path fill="none" stroke="#000000" d="M166.1745,-532.83C171.0608,-520.4327 177.6508,-503.713 183.201,-489.6312"/>
<polygon fill="#000000" stroke="#000000" points="186.6087,-490.5302 187.0195,-479.9433 180.0963,-487.9633 186.6087,-490.5302"/>
</a>
</g>
<g id="a_edge5&#45;label"><a xlink:href="https://github.com/pipcet/asmjs/blob/everything/wasm32.org#ld" xlink:title="GNU ld">
<text text-anchor="middle" x="201.4469" y="-502.2" font-family="Times-Roman" font-size="14.00" fill="#000000">GNU ld</text>
</a>
</g>
</g>
<!-- ELF library&#45;&gt;ELF executable -->
<g id="edge7" class="edge">
<title>ELF library&#45;&gt;ELF executable</title>
<path fill="none" stroke="#000000" d="M177.2985,-444.456C164.6088,-431.199 147.0214,-412.8254 132.8842,-398.0562"/>
<polygon fill="#000000" stroke="#000000" points="135.2933,-395.5114 125.8501,-390.7076 130.2366,-400.3517 135.2933,-395.5114"/>
<text text-anchor="middle" x="176.9725" y="-413.4" font-family="Times-Roman" font-size="14.00" fill="#000000">elfedit</text>
</g>
<!-- long WASM -->
<g id="node8" class="node">
<title>long WASM</title>
<ellipse fill="none" stroke="#000000" cx="189.0917" cy="-195.6" rx="60.8179" ry="18"/>
<text text-anchor="middle" x="189.0917" y="-191.4" font-family="Times-Roman" font-size="14.00" fill="#000000">long WASM</text>
</g>
<!-- ELF intermediate&#45;&gt;long WASM -->
<g id="edge9" class="edge">
<title>ELF intermediate&#45;&gt;long WASM</title>
<g id="a_edge9"><a xlink:href="https://github.com/pipcet/asmjs/blob/everything/wasm32.org#wasm32-wasmify.lds" xlink:title="wasm32&#45;wasmify.lds">
<path fill="none" stroke="#000000" d="M132.9181,-266.1448C134.667,-255.4097 138.0805,-241.9558 144.7319,-231.6 147.6062,-227.1249 151.2228,-222.9449 155.1446,-219.1329"/>
<polygon fill="#000000" stroke="#000000" points="157.747,-221.5053 162.9475,-212.2747 153.1258,-216.2475 157.747,-221.5053"/>
</a>
</g>
<g id="a_edge9&#45;label"><a xlink:href="https://github.com/pipcet/asmjs/blob/everything/wasm32.org#wasm32-wasmify.lds" xlink:title="wasm32&#45;wasmify.lds">
<text text-anchor="middle" x="203.7716" y="-235.8" font-family="Times-Roman" font-size="14.00" fill="#000000">wasm32&#45;wasmify.lds</text>
</a>
</g>
</g>
<!-- short WASM -->
<g id="node9" class="node">
<title>short WASM</title>
<ellipse fill="none" stroke="#000000" cx="187.0917" cy="-106.8" rx="62.6019" ry="18"/>
<text text-anchor="middle" x="187.0917" y="-102.6" font-family="Times-Roman" font-size="14.00" fill="#000000">short WASM</text>
</g>
<!-- long WASM&#45;&gt;short WASM -->
<g id="edge10" class="edge">
<title>long WASM&#45;&gt;short WASM</title>
<g id="a_edge10"><a xlink:href="https://github.com/pipcet/asmjs/blob/everything/wasm32.org#wasmrewrite" xlink:title="wasmrewrite">
<path fill="none" stroke="#000000" d="M188.6773,-177.2006C188.4047,-165.0949 188.0423,-149.0076 187.7329,-135.2674"/>
<polygon fill="#000000" stroke="#000000" points="191.2231,-134.7906 187.4988,-124.872 184.2249,-134.9483 191.2231,-134.7906"/>
</a>
</g>
<g id="a_edge10&#45;label"><a xlink:href="https://github.com/pipcet/asmjs/blob/everything/wasm32.org#wasmrewrite" xlink:title="wasmrewrite">
<text text-anchor="middle" x="224.239" y="-147" font-family="Times-Roman" font-size="14.00" fill="#000000">wasmrewrite</text>
</a>
</g>
</g>
<!-- short WASM&#45;&gt;final WASM -->
<g id="edge11" class="edge">
<title>short WASM&#45;&gt;final WASM</title>
<g id="a_edge11"><a xlink:href="https://github.com/pipcet/asmjs/blob/everything/wasm32.org#dyninfo" xlink:title="dyninfo">
<path fill="none" stroke="#000000" d="M187.0917,-88.4006C187.0917,-76.2949 187.0917,-60.2076 187.0917,-46.4674"/>
<polygon fill="#000000" stroke="#000000" points="190.5918,-46.072 187.0917,-36.072 183.5918,-46.0721 190.5918,-46.072"/>
</a>
</g>
<g id="a_edge11&#45;label"><a xlink:href="https://github.com/pipcet/asmjs/blob/everything/wasm32.org#dyninfo" xlink:title="dyninfo">
<text text-anchor="middle" x="208.8673" y="-58.2" font-family="Times-Roman" font-size="14.00" fill="#000000">dyninfo</text>
</a>
</g>
</g>
<!-- wasm2s&#45;&gt;final WASM -->
<g id="edge15" class="edge">
<title>wasm2s&#45;&gt;final WASM</title>
<path fill="none" stroke="#000000" d="M278.0917,-151.2C266.8339,-124.4847 271.6927,-114.9087 259.0917,-88.8 250.9253,-71.8795 248.1103,-67.5467 235.0917,-54 228.3069,-46.94 220.0331,-40.2109 212.2784,-34.5216"/>
</g>
<!-- wasm2s&#45;&gt;long WASM -->
<g id="edge13" class="edge">
<title>wasm2s&#45;&gt;long WASM</title>
<path fill="none" stroke="#000000" d="M281.36,-255.9119C281.0821,-250.4774 280.1437,-244.9461 278.0917,-240"/>
<polygon fill="#000000" stroke="#000000" points="277.8581,-256.0104 281.1999,-266.0643 284.8573,-256.1208 277.8581,-256.0104"/>
<path fill="none" stroke="#000000" d="M278.0917,-240C271.1439,-223.2532 254.9232,-212.7747 238.2051,-206.2398"/>
</g>
<!-- wasm2s&#45;&gt;short WASM -->
<g id="edge14" class="edge">
<title>wasm2s&#45;&gt;short WASM</title>
<path fill="none" stroke="#000000" d="M278.0917,-240C262.968,-203.5461 293.4177,-187.5694 278.0917,-151.2"/>
<path fill="none" stroke="#000000" d="M278.0917,-151.2C271.0606,-134.5148 254.9562,-124.0685 238.2179,-117.5417"/>
</g>
</g>
</svg>
