<?xml version="1.0" encoding="UTF-8" standalone="no"?>
<!DOCTYPE svg PUBLIC "-//W3C//DTD SVG 1.1//EN"
 "http://www.w3.org/Graphics/SVG/1.1/DTD/svg11.dtd">
<!-- Generated by graphviz version 2.38.0 (20140413.2041)
 -->
<!-- Title: G Pages: 1 -->
<svg width="297pt" height="740pt"
 viewBox="0.00 0.00 296.50 740.00" xmlns="http://www.w3.org/2000/svg" xmlns:xlink="http://www.w3.org/1999/xlink">
<g id="graph0" class="graph" transform="scale(1 1) rotate(0) translate(4 736)">
<title>G</title>
<polygon fill="white" stroke="none" points="-4,4 -4,-736 292.5,-736 292.5,4 -4,4"/>
<!-- C source -->
<g id="node1" class="node"><title>C source</title>
<ellipse fill="none" stroke="black" cx="63" cy="-714" rx="42.4939" ry="18"/>
<text text-anchor="middle" x="63" y="-710.3" font-family="Times,serif" font-size="14.00">C source</text>
</g>
<!-- ELF executable -->
<g id="node2" class="node"><title>ELF executable</title>
<ellipse fill="none" stroke="black" cx="94" cy="-366" rx="66.0889" ry="18"/>
<text text-anchor="middle" x="94" y="-362.3" font-family="Times,serif" font-size="14.00">ELF executable</text>
</g>
<!-- C source&#45;&gt;ELF executable -->
<g id="edge1" class="edge"><title>C source&#45;&gt;ELF executable</title>
<g id="a_edge1"><a xlink:href="https://github.com/pipcet/asmjs/blob/everything/wasm32.org#gcc-invocation" xlink:title="gcc">
<path fill="none" stroke="black" d="M48.514,-697.072C35.3591,-680.908 18,-654.549 18,-628 18,-628 18,-628 18,-495.5 18,-452.545 42.9335,-447.934 64,-410.5"/>
<path fill="none" stroke="black" d="M64,-408.5C66.5703,-402.912 69.9426,-397.313 73.4956,-392.117"/>
<polygon fill="black" stroke="black" points="76.4758,-393.971 79.536,-383.827 70.8183,-389.848 76.4758,-393.971"/>
</a>
</g>
<g id="a_edge1&#45;label"><a xlink:href="https://github.com/pipcet/asmjs/blob/everything/wasm32.org#gcc-invocation" xlink:title="gcc">
<text text-anchor="middle" x="27.5" y="-536.3" font-family="Times,serif" font-size="14.00">gcc</text>
</a>
</g>
</g>
<!-- Assembler source -->
<g id="node4" class="node"><title>Assembler source</title>
<ellipse fill="none" stroke="black" cx="143" cy="-627" rx="74.187" ry="18"/>
<text text-anchor="middle" x="143" y="-623.3" font-family="Times,serif" font-size="14.00">Assembler source</text>
</g>
<!-- C source&#45;&gt;Assembler source -->
<g id="edge3" class="edge"><title>C source&#45;&gt;Assembler source</title>
<g id="a_edge3"><a xlink:href="https://github.com/pipcet/asmjs/blob/everything/wasm32.org#gcc-translates-cc-code-to-assembler-code" xlink:title="GNU CC">
<path fill="none" stroke="black" d="M78.0474,-697.012C89.8862,-684.433 106.58,-666.696 120.079,-652.353"/>
<polygon fill="black" stroke="black" points="122.894,-654.469 127.199,-644.789 117.797,-649.672 122.894,-654.469"/>
</a>
</g>
<g id="a_edge3&#45;label"><a xlink:href="https://github.com/pipcet/asmjs/blob/everything/wasm32.org#gcc-translates-cc-code-to-assembler-code" xlink:title="GNU CC">
<text text-anchor="middle" x="134" y="-666.8" font-family="Times,serif" font-size="14.00">GNU CC</text>
</a>
</g>
</g>
<!-- final WASM -->
<g id="node3" class="node"><title>final WASM</title>
<ellipse fill="none" stroke="black" cx="171" cy="-18" rx="57.6901" ry="18"/>
<text text-anchor="middle" x="171" y="-14.3" font-family="Times,serif" font-size="14.00">final WASM</text>
</g>
<!-- ELF executable&#45;&gt;final WASM -->
<g id="edge2" class="edge"><title>ELF executable&#45;&gt;final WASM</title>
<g id="a_edge2"><a xlink:href="https://github.com/pipcet/asmjs/blob/everything/wasm32.org#binwasmify-wasm32-invocation" xlink:title="wasmify&#45;wasm32">
<path fill="none" stroke="black" d="M59.5316,-350.599C32.7041,-336.826 0,-313.223 0,-280 0,-280 0,-280 0,-104 0,-54.7874 57.4945,-34.0674 105.807,-25.3437"/>
<polygon fill="black" stroke="black" points="106.662,-28.7498 115.953,-23.6584 105.515,-21.8444 106.662,-28.7498"/>
</a>
</g>
<g id="a_edge2&#45;label"><a xlink:href="https://github.com/pipcet/asmjs/blob/everything/wasm32.org#binwasmify-wasm32-invocation" xlink:title="wasmify&#45;wasm32">
<text text-anchor="middle" x="49" y="-188.3" font-family="Times,serif" font-size="14.00">wasmify&#45;wasm32</text>
</a>
</g>
</g>
<!-- ELF intermediate -->
<g id="node7" class="node"><title>ELF intermediate</title>
<ellipse fill="none" stroke="black" cx="113" cy="-279" rx="73.387" ry="18"/>
<text text-anchor="middle" x="113" y="-275.3" font-family="Times,serif" font-size="14.00">ELF intermediate</text>
</g>
<!-- ELF executable&#45;&gt;ELF intermediate -->
<g id="edge8" class="edge"><title>ELF executable&#45;&gt;ELF intermediate</title>
<g id="a_edge8"><a xlink:href="https://github.com/pipcet/asmjs/blob/everything/wasm32.org#gnu-ld-creates-a-temporary-elf-object-with-webassembly-code-from-the-elf-executable" xlink:title="wasm32.cpp&#45;lds.lds">
<path fill="none" stroke="black" d="M97.8449,-347.799C100.446,-336.163 103.936,-320.548 106.912,-307.237"/>
<polygon fill="black" stroke="black" points="110.395,-307.698 109.161,-297.175 103.564,-306.171 110.395,-307.698"/>
</a>
</g>
<g id="a_edge8&#45;label"><a xlink:href="https://github.com/pipcet/asmjs/blob/everything/wasm32.org#gnu-ld-creates-a-temporary-elf-object-with-webassembly-code-from-the-elf-executable" xlink:title="wasm32.cpp&#45;lds.lds">
<text text-anchor="middle" x="159.5" y="-318.8" font-family="Times,serif" font-size="14.00">wasm32.cpp&#45;lds.lds</text>
</a>
</g>
</g>
<!-- ELF object file -->
<g id="node5" class="node"><title>ELF object file</title>
<ellipse fill="none" stroke="black" cx="143" cy="-540" rx="64.189" ry="18"/>
<text text-anchor="middle" x="143" y="-536.3" font-family="Times,serif" font-size="14.00">ELF object file</text>
</g>
<!-- Assembler source&#45;&gt;ELF object file -->
<g id="edge4" class="edge"><title>Assembler source&#45;&gt;ELF object file</title>
<g id="a_edge4"><a xlink:href="https://github.com/pipcet/asmjs/blob/everything/wasm32.org#gnu-as-translates-assembler-code-into-an-elf-object-file" xlink:title="GNU as">
<path fill="none" stroke="black" d="M143,-608.799C143,-597.163 143,-581.548 143,-568.237"/>
<polygon fill="black" stroke="black" points="146.5,-568.175 143,-558.175 139.5,-568.175 146.5,-568.175"/>
</a>
</g>
<g id="a_edge4&#45;label"><a xlink:href="https://github.com/pipcet/asmjs/blob/everything/wasm32.org#gnu-as-translates-assembler-code-into-an-elf-object-file" xlink:title="GNU as">
<text text-anchor="middle" x="165.5" y="-579.8" font-family="Times,serif" font-size="14.00">GNU as</text>
</a>
</g>
</g>
<!-- wasm2s -->
<g id="node10" class="node"><title>wasm2s</title>
<g id="a_node10"><a xlink:href="https://github.com/pipcet/" xlink:title="wasm2s">
<polygon fill="none" stroke="black" points="288.5,-297 227.5,-297 227.5,-261 288.5,-261 288.5,-297"/>
<text text-anchor="middle" x="258" y="-275.3" font-family="Times,serif" font-size="14.00">wasm2s</text>
</a>
</g>
</g>
<!-- Assembler source&#45;&gt;wasm2s -->
<g id="edge12" class="edge"><title>Assembler source&#45;&gt;wasm2s</title>
<path fill="none" stroke="black" d="M197.675,-608.616C227.335,-595.41 258,-573.82 258,-541 258,-541 258,-541 258,-365 258,-341.536 258,-314.43 258,-297.256"/>
<polygon fill="black" stroke="black" points="195.996,-605.525 188.121,-612.613 198.697,-611.983 195.996,-605.525"/>
</g>
<!-- ELF object file&#45;&gt;ELF executable -->
<g id="edge6" class="edge"><title>ELF object file&#45;&gt;ELF executable</title>
<g id="a_edge6"><a xlink:href="https://github.com/pipcet/asmjs/blob/everything/wasm32.org#gnu-ld-links-the-elf-object-files-into-an-elf-executable" xlink:title="GNU ld">
<path fill="none" stroke="black" d="M120.561,-523.012C89.3669,-498.747 39.3567,-451.143 64,-410.5"/>
</a>
</g>
<g id="a_edge6&#45;label"><a xlink:href="https://github.com/pipcet/asmjs/blob/everything/wasm32.org#gnu-ld-links-the-elf-object-files-into-an-elf-executable" xlink:title="GNU ld">
<text text-anchor="middle" x="93" y="-449.3" font-family="Times,serif" font-size="14.00">GNU ld</text>
</a>
</g>
</g>
<!-- ELF library -->
<g id="node6" class="node"><title>ELF library</title>
<ellipse fill="none" stroke="black" cx="178" cy="-453" rx="51.9908" ry="18"/>
<text text-anchor="middle" x="178" y="-449.3" font-family="Times,serif" font-size="14.00">ELF library</text>
</g>
<!-- ELF object file&#45;&gt;ELF library -->
<g id="edge5" class="edge"><title>ELF object file&#45;&gt;ELF library</title>
<path fill="none" stroke="black" d="M150.083,-521.799C155.001,-509.854 161.646,-493.717 167.219,-480.183"/>
<polygon fill="black" stroke="black" points="170.476,-481.465 171.047,-470.885 164.003,-478.799 170.476,-481.465"/>
<text text-anchor="middle" x="185" y="-492.8" font-family="Times,serif" font-size="14.00">GNU ld</text>
</g>
<!-- ELF library&#45;&gt;ELF executable -->
<g id="edge7" class="edge"><title>ELF library&#45;&gt;ELF executable</title>
<path fill="none" stroke="black" d="M161.804,-435.611C149.334,-422.993 131.909,-405.361 117.847,-391.131"/>
<polygon fill="black" stroke="black" points="119.952,-388.281 110.433,-383.629 114.973,-393.202 119.952,-388.281"/>
<text text-anchor="middle" x="159.5" y="-405.8" font-family="Times,serif" font-size="14.00">elfedit</text>
</g>
<!-- long WASM -->
<g id="node8" class="node"><title>long WASM</title>
<ellipse fill="none" stroke="black" cx="173" cy="-192" rx="57.3905" ry="18"/>
<text text-anchor="middle" x="173" y="-188.3" font-family="Times,serif" font-size="14.00">long WASM</text>
</g>
<!-- ELF intermediate&#45;&gt;long WASM -->
<g id="edge9" class="edge"><title>ELF intermediate&#45;&gt;long WASM</title>
<g id="a_edge9"><a xlink:href="https://github.com/pipcet/asmjs/blob/everything/wasm32.org#gnu-ld-turns-this-temporary-elf-object-file-into-a-valid-webassembly-module" xlink:title="wasm32&#45;wasmify.lds">
<path fill="none" stroke="black" d="M114.615,-260.615C116.238,-250.415 119.488,-237.672 126,-228 129.349,-223.026 133.647,-218.487 138.279,-214.447"/>
<polygon fill="black" stroke="black" points="140.602,-217.072 146.283,-208.129 136.265,-211.578 140.602,-217.072"/>
</a>
</g>
<g id="a_edge9&#45;label"><a xlink:href="https://github.com/pipcet/asmjs/blob/everything/wasm32.org#gnu-ld-turns-this-temporary-elf-object-file-into-a-valid-webassembly-module" xlink:title="wasm32&#45;wasmify.lds">
<text text-anchor="middle" x="185" y="-231.8" font-family="Times,serif" font-size="14.00">wasm32&#45;wasmify.lds</text>
</a>
</g>
</g>
<!-- short WASM -->
<g id="node9" class="node"><title>short WASM</title>
<ellipse fill="none" stroke="black" cx="171" cy="-105" rx="59.2899" ry="18"/>
<text text-anchor="middle" x="171" y="-101.3" font-family="Times,serif" font-size="14.00">short WASM</text>
</g>
<!-- long WASM&#45;&gt;short WASM -->
<g id="edge10" class="edge"><title>long WASM&#45;&gt;short WASM</title>
<g id="a_edge10"><a xlink:href="https://github.com/pipcet/asmjs/blob/everything/wasm32.org#binwasmrewrite-rewrites-leb-128-integers-to-have-minimal-length" xlink:title="wasmrewrite">
<path fill="none" stroke="black" d="M172.595,-173.799C172.321,-162.163 171.954,-146.548 171.641,-133.237"/>
<polygon fill="black" stroke="black" points="175.138,-133.09 171.404,-123.175 168.14,-133.255 175.138,-133.09"/>
</a>
</g>
<g id="a_edge10&#45;label"><a xlink:href="https://github.com/pipcet/asmjs/blob/everything/wasm32.org#binwasmrewrite-rewrites-leb-128-integers-to-have-minimal-length" xlink:title="wasmrewrite">
<text text-anchor="middle" x="208.5" y="-144.8" font-family="Times,serif" font-size="14.00">wasmrewrite</text>
</a>
</g>
</g>
<!-- short WASM&#45;&gt;final WASM -->
<g id="edge11" class="edge"><title>short WASM&#45;&gt;final WASM</title>
<path fill="none" stroke="black" d="M171,-86.799C171,-75.1626 171,-59.5479 171,-46.2368"/>
<polygon fill="black" stroke="black" points="174.5,-46.1754 171,-36.1754 167.5,-46.1755 174.5,-46.1754"/>
<text text-anchor="middle" x="192.5" y="-57.8" font-family="Times,serif" font-size="14.00">dyninfo</text>
</g>
<!-- wasm2s&#45;&gt;final WASM -->
<g id="edge15" class="edge"><title>wasm2s&#45;&gt;final WASM</title>
<path fill="none" stroke="black" d="M258,-147.5C240.703,-105.742 248.767,-87.1108 218,-54 211.352,-46.8453 203.08,-40.1347 195.338,-34.5413"/>
</g>
<!-- wasm2s&#45;&gt;long WASM -->
<g id="edge13" class="edge"><title>wasm2s&#45;&gt;long WASM</title>
<path fill="none" stroke="black" d="M260.964,-250.61C260.661,-245.781 259.792,-240.897 258,-236.5"/>
<polygon fill="black" stroke="black" points="257.461,-250.846 260.861,-260.88 264.461,-250.916 257.461,-250.846"/>
<path fill="none" stroke="black" d="M258,-234.5C251.494,-218.531 236.026,-208.681 220.041,-202.616"/>
</g>
<!-- wasm2s&#45;&gt;short WASM -->
<g id="edge14" class="edge"><title>wasm2s&#45;&gt;short WASM</title>
<path fill="none" stroke="black" d="M258,-234.5C243.746,-199.514 272.457,-184.402 258,-149.5"/>
<path fill="none" stroke="black" d="M258,-147.5C251.34,-131.421 235.733,-121.557 219.547,-115.512"/>
</g>
</g>
</svg>
